<?xml version="1.0" standalone="no"?>
<!DOCTYPE svg PUBLIC "-//W3C//DTD SVG 20010904//EN"
 "http://www.w3.org/TR/2001/REC-SVG-20010904/DTD/svg10.dtd">
<svg version="1.0" xmlns="http://www.w3.org/2000/svg"
 width="300.000000pt" height="308.000000pt" viewBox="0 0 300.000000 308.000000"
 preserveAspectRatio="xMidYMid meet">
<metadata>
Created by potrace 1.10, written by Peter Selinger 2001-2011
</metadata>
<g transform="translate(0.000000,308.000000) scale(0.100000,-0.100000)"
fill="#000000" stroke="none">
<path d="M2970 3076 c0 -2 7 -9 15 -16 12 -10 15 -10 15 4 0 9 -7 16 -15 16
-8 0 -15 -2 -15 -4z"/>
<path d="M1355 2950 c-59 -12 -193 -76 -241 -115 -53 -44 -81 -100 -99 -206
-22 -126 -20 -157 18 -219 28 -47 40 -58 87 -77 32 -12 100 -26 159 -32 120
-13 266 -14 236 -2 -11 5 -35 7 -54 5 -33 -3 -204 9 -268 20 -17 3 -53 15 -80
28 -63 30 -103 99 -98 168 11 159 28 217 80 278 56 67 205 138 293 141 12 1
22 6 22 11 0 11 1 11 -55 0z"/>
<path d="M1422 2955 c4 -4 47 -7 95 -6 107 3 166 -10 250 -52 68 -33 125 -84
150 -131 21 -41 53 -200 53 -266 0 -37 -8 -72 -24 -107 -24 -51 -33 -57 -95
-68 -19 -3 -38 -8 -43 -11 -5 -3 -58 -5 -119 -5 -62 0 -109 -2 -106 -5 9 -10
202 -5 252 6 100 21 121 41 144 135 15 61 -17 265 -53 333 -31 58 -112 119
-216 160 -37 15 -301 30 -288 17z"/>
<path d="M1407 2839 c-32 -4 -77 -17 -101 -27 -80 -36 -158 -161 -159 -257 -2
-135 89 -172 403 -163 201 6 230 15 254 80 15 37 15 54 6 113 -16 106 -27 131
-77 175 -73 64 -208 97 -326 79z m202 -39 c35 -10 67 -23 70 -27 3 -5 19 -17
34 -27 56 -35 91 -179 66 -270 -8 -30 -27 -45 -42 -33 -2 1 -12 -5 -22 -13
-15 -12 -54 -15 -220 -14 -179 2 -207 4 -248 22 -29 13 -51 31 -61 51 -17 32
-22 126 -7 117 5 -4 7 2 5 11 -6 22 58 120 98 152 64 52 213 66 327 31z"/>
<path d="M1311 2722 c-26 -22 -34 -37 -38 -73 -14 -120 71 -192 145 -124 52
48 37 186 -24 214 -36 16 -46 14 -83 -17z m74 2 c45 -18 61 -131 24 -178 -50
-64 -124 -9 -116 87 6 69 46 108 92 91z"/>
<path d="M1544 2729 c-34 -17 -54 -62 -54 -123 0 -50 3 -59 35 -90 22 -22 42
-34 54 -31 57 11 91 57 91 124 0 96 -59 152 -126 120z m80 -40 c32 -38 35 -99
6 -146 -43 -71 -120 -23 -120 74 0 47 38 103 70 103 10 0 30 -14 44 -31z"/>
<path d="M1588 2203 c6 -2 18 -2 25 0 6 3 1 5 -13 5 -14 0 -19 -2 -12 -5z"/>
<path d="M1690 2187 c0 -2 39 -23 88 -47 71 -36 104 -60 177 -134 93 -95 91
-85 -5 17 -53 57 -145 120 -222 152 -21 8 -38 14 -38 12z"/>
<path d="M1089 2096 c-26 -19 -57 -49 -69 -68 -22 -31 -21 -30 16 7 21 22 55
52 74 67 51 39 33 34 -21 -6z"/>
<path d="M924 1972 c-12 -8 -34 -46 -34 -59 0 -4 9 7 20 25 12 20 25 30 32 26
7 -4 8 -3 4 4 -8 14 -8 14 -22 4z"/>
<path d="M970 1965 c-7 -9 -8 -15 -2 -15 5 0 12 7 16 15 3 8 4 15 2 15 -2 0
-9 -7 -16 -15z"/>
<path d="M400 1954 c-10 -11 -11 -25 -4 -52 11 -46 96 -117 208 -173 68 -34
87 -39 146 -39 87 0 97 4 93 38 -2 15 2 48 10 74 l15 48 -26 -8 c-44 -12 -133
-7 -195 12 -42 12 -71 30 -109 66 -29 28 -59 50 -68 49 -13 0 -13 -1 1 -7 9
-4 30 -24 48 -44 45 -52 84 -73 175 -98 62 -16 85 -19 109 -11 29 11 29 11 23
-20 -3 -17 -6 -42 -6 -55 0 -22 -4 -24 -55 -24 -64 0 -113 17 -210 74 -122 72
-171 136 -133 174 8 8 8 12 1 12 -6 0 -16 -7 -23 -16z"/>
<path d="M2080 1918 c-19 -17 -28 -27 -20 -23 8 5 23 15 33 24 16 13 19 13 27
1 8 -13 10 -12 10 2 0 28 -13 27 -50 -4z"/>
<path d="M876 1885 c-9 -26 -7 -32 5 -12 6 10 9 21 6 23 -2 3 -7 -2 -11 -11z"/>
<path d="M2133 1860 c0 -25 2 -35 4 -22 2 12 2 32 0 45 -2 12 -4 2 -4 -23z"/>
<path d="M2140 1796 c0 -2 -4 -27 -10 -55 -9 -51 -9 -53 19 -77 43 -36 54 -74
48 -157 -3 -49 -15 -96 -36 -147 -18 -41 -30 -84 -29 -95 6 -41 83 -25 119 26
11 16 31 73 45 126 30 118 28 212 -5 267 -30 48 -151 139 -151 112z m103 -95
c41 -44 47 -56 48 -96 1 -25 2 -51 3 -57 2 -12 -6 -72 -17 -128 -18 -96 -61
-160 -107 -160 -25 0 -19 42 14 108 55 109 53 238 -6 299 -26 27 -30 36 -24
67 9 45 21 40 89 -33z"/>
<path d="M854 1652 c5 -50 12 -60 28 -44 20 20 26 14 33 -40 27 -200 77 -349
199 -591 119 -237 176 -327 245 -389 79 -71 155 -85 236 -42 123 64 176 146
305 469 17 44 46 116 65 160 39 95 74 260 77 367 l2 77 27 -20 27 -19 12 35
c6 19 10 41 7 48 -2 6 -7 -3 -11 -21 -6 -25 -12 -33 -24 -29 -48 13 -46 17
-54 -88 -8 -108 -41 -272 -65 -319 -9 -16 -26 -57 -38 -90 -68 -180 -157 -384
-174 -396 -3 -3 -15 -18 -25 -34 -75 -119 -193 -172 -290 -132 -98 41 -162
136 -356 526 -44 87 -78 177 -107 285 -33 123 -33 124 -39 179 -6 63 -20 89
-44 83 -14 -4 -21 3 -29 32 l-11 36 4 -43z"/>
<path d="M1267 261 c-48 -10 -48 -11 -49 -61 -1 -55 19 -70 120 -96 108 -27
342 -27 425 0 74 23 112 55 115 95 2 28 -1 31 -50 47 -43 14 -99 18 -288 20
-129 1 -252 -1 -273 -5z m571 -29 c51 -28 12 -93 -68 -111 -111 -26 -134 -28
-232 -26 -119 4 -166 10 -226 31 -70 23 -82 32 -82 62 0 48 13 56 102 62 131
8 479 -4 506 -18z"/>
</g>
</svg>
